<svg xmlns="http://www.w3.org/2000/svg" width="16" height="16" viewBox="0 0 4.233 4.233"><g style="stroke-width:1.00021;stroke-miterlimit:4;stroke-dasharray:none"><path d="m4.084 4.046-.616.015-.645-.004a.94.94 0 0 1-.942-.942v-4.398a.94.94 0 0 1 .942-.943H7.22a.94.94 0 0 1 .942.943l-.006.334-.08.962" style="opacity:.998;fill:none;fill-opacity:1;stroke:#deddda;stroke-width:1.17052;stroke-miterlimit:4;stroke-dasharray:none;stroke-opacity:1" transform="matrix(.45208 0 0 .45208 -.528 1.295)"/><path d="M8.434 5.85c-.422.009-1.338.009-1.76.01-.733.004-2.199 0-2.199 0a.94.94 0 0 1-.942-.941V.52a.94.94 0 0 1 .942-.942h4.398a.94.94 0 0 1 .943.942s.004 1.466 0 2.2c-.003.418-.019 1.251-.006 1.67.024.812-.382 1.439-1.376 1.46z" style="opacity:.998;fill:none;fill-opacity:1;stroke:#deddda;stroke-width:1.17052;stroke-miterlimit:4;stroke-dasharray:none;stroke-opacity:1" transform="matrix(.45208 0 0 .45208 -.528 1.295)"/></g></svg>