<svg xmlns="http://www.w3.org/2000/svg" xmlns:xlink="http://www.w3.org/1999/xlink" width="380" height="320" viewBox="0 0 100.542 84.667"><defs><radialGradient xlink:href="#a" id="b" cx="56.456" cy="167.686" r="20.58" fx="56.456" fy="167.686" gradientTransform="matrix(1.20299 0 0 .16716 -47.95 39.543)" gradientUnits="userSpaceOnUse"/><radialGradient xlink:href="#a" id="c" cx="56.456" cy="167.686" r="20.58" fx="56.456" fy="167.686" gradientTransform="matrix(1.20299 0 0 .16716 -134.808 42.425)" gradientUnits="userSpaceOnUse"/><linearGradient id="a"><stop offset="0" style="stop-color:#838383;stop-opacity:1"/><stop offset="1" style="stop-color:#bfbfbf;stop-opacity:0"/></linearGradient></defs><g transform="translate(6.164 -.686)"><ellipse cx="19.965" cy="67.574" rx="24.757" ry="3.44" style="color:#000;clip-rule:nonzero;display:inline;overflow:visible;visibility:visible;opacity:.789;isolation:auto;mix-blend-mode:normal;color-interpolation:sRGB;color-interpolation-filters:linearRGB;solid-color:#000;solid-opacity:1;vector-effect:none;fill:url(#b);fill-opacity:1;fill-rule:nonzero;stroke:none;stroke-width:.264583px;stroke-linecap:butt;stroke-linejoin:miter;stroke-miterlimit:4;stroke-dasharray:none;stroke-dashoffset:0;stroke-opacity:1;marker:none;paint-order:markers stroke fill;color-rendering:auto;image-rendering:auto;shape-rendering:auto;text-rendering:auto"/><path d="M35.977 59.606c-.665.032-.908 1.867-1.67 2.498s-2.184 1.438-3.601.487c-1.417-.95-2.836 2.031-2.779 2.567.058.535 2.538.45 3.984.238 1.445-.21 2.655-1.225 3.283-2.33.59-1.038.783-3.46.783-3.46" style="vector-effect:none;fill:#ffb370;fill-opacity:1;fill-rule:evenodd;stroke:none;stroke-width:.2;stroke-linecap:butt;stroke-linejoin:miter;stroke-miterlimit:4;stroke-dasharray:none;stroke-dashoffset:0;stroke-opacity:1"/><path d="M22.034 60.98c.219-.108.426-.286.604-.508.093-.116.16-.28.139-.421-.006-.071-.031-.135-.078-.168-.124-.109-.303-.107-.47-.038a1.55 1.55 0 0 0-.569.42.6.6 0 0 0-.124.501c.033.17.151.305.308.274a.5.5 0 0 0 .19-.06z" style="fill:#fffdfb;fill-opacity:.461187;fill-rule:evenodd;stroke:none;stroke-width:.365;stroke-linecap:butt;stroke-linejoin:miter;stroke-miterlimit:4;stroke-dasharray:none;stroke-opacity:1"/><path d="M2.498 63.822c.574-.48 1.845.747 2.85.654 1.003-.092 2.66-.552 3.289-2.36.63-1.809 3.55-.592 3.814-.136s-1.857 2.274-3.186 3.21c-1.33.935-2.93 1.073-4.098.7-1.097-.351-2.669-2.068-2.669-2.068" style="vector-effect:none;fill:#ffb370;fill-opacity:1;fill-rule:evenodd;stroke:none;stroke-width:.2;stroke-linecap:butt;stroke-linejoin:miter;stroke-miterlimit:4;stroke-dasharray:none;stroke-dashoffset:0;stroke-opacity:1"/><path d="M11.325 61.203a1.8 1.8 0 0 1-.545.568c-.123.085-.29.141-.43.11-.07-.01-.133-.039-.163-.088-.1-.13-.087-.31-.007-.472.093-.197.258-.383.458-.539a.6.6 0 0 1 .508-.091c.168.045.294.171.253.326a.5.5 0 0 1-.073.186z" style="fill:#fffdfb;fill-opacity:.461187;fill-rule:evenodd;stroke:none;stroke-width:.365;stroke-linecap:butt;stroke-linejoin:miter;stroke-miterlimit:4;stroke-dasharray:none;stroke-opacity:1"/><path d="M34.5 40.433c2.32 11.268-3.095 18.713-11.26 20.321C15.997 62.18 7 54.839 6.22 46.096c-.614-6.884 3.528-12.013 11.742-13.297 8.002-1.252 15.512 2.65 16.538 7.634" style="color:#000;clip-rule:nonzero;display:inline;overflow:visible;visibility:visible;isolation:auto;mix-blend-mode:normal;color-interpolation:sRGB;color-interpolation-filters:linearRGB;solid-color:#000;solid-opacity:1;vector-effect:none;fill:#fd9c50;fill-opacity:1;fill-rule:nonzero;stroke:none;stroke-width:.2;stroke-linecap:butt;stroke-linejoin:miter;stroke-miterlimit:4;stroke-dasharray:none;stroke-dashoffset:0;stroke-opacity:1;marker:none;paint-order:markers stroke fill;color-rendering:auto;image-rendering:auto;shape-rendering:auto;text-rendering:auto"/><path d="M10.7 15.842c.445-1.167 2.115-2.055 3.182-.902.632.682 29.58 25.829 30.421 26.482 1.155.898 1.61 2.37.509 3.019-1.173.38-43.957 4.49-45.037 4.696s-4.116-1.34-2.992-2.873 13.503-28.486 13.916-30.422" style="fill:#fd9c50;fill-opacity:1;fill-rule:evenodd;stroke:none;stroke-width:.2;stroke-linecap:butt;stroke-linejoin:miter;stroke-miterlimit:4;stroke-dasharray:none;stroke-opacity:1"/><g style="opacity:.7"><path d="M40.727 129.676c1.767-2.45 18.796-6.065 19.84-5.302s.485 14.546-.84 14.988-19.643-6.714-19-9.686" style="fill:#fff;fill-opacity:1;fill-rule:evenodd;stroke:none;stroke-width:.265;stroke-linecap:butt;stroke-linejoin:miter;stroke-miterlimit:4;stroke-dasharray:none;stroke-opacity:1" transform="matrix(1.02556 .1802 -.0216 .97128 -31.075 -102.467)"/><path d="M60.726 124.265c.405 5.023.436 9.414-1.014 15.087 8.711-2.58 13.404-4.123 13.88-4.381.94-.511-.31-1.551-1.257-2.164-.326-.21-5.87-4.302-11.609-8.542" style="fill:#f1680d;fill-opacity:1;fill-rule:evenodd;stroke:none;stroke-width:.264583px;stroke-linecap:butt;stroke-linejoin:miter;stroke-opacity:1" transform="matrix(1.02556 .1802 -.0216 .97128 -31.075 -102.467)"/><path d="M46.539 114.109c-.345.023-.66.266-.852.88-.158.915-2.553 7.975-4.943 14.768 4.419-1.58 11.654-4.001 20.168-5.354-6.462-4.774-13.249-9.795-13.563-10.015-.258-.18-.543-.297-.81-.28" style="fill:#211f20;fill-opacity:1;fill-rule:evenodd;stroke:none;stroke-width:.264583px;stroke-linecap:butt;stroke-linejoin:miter;stroke-opacity:1" transform="matrix(1.02556 .1802 -.0216 .97128 -31.075 -102.467)"/><path d="M40.767 129.67c-2.218 6.308-4.442 12.415-4.868 13.146-.883 1.515 1.44 3.153 2.31 2.81.428-.169 12.909-3.711 21.39-6.222-6.697-3.927-14.61-7.64-18.832-9.734" style="fill:#737373;fill-opacity:1;fill-rule:evenodd;stroke:none;stroke-width:.2;stroke-linecap:butt;stroke-linejoin:miter;stroke-miterlimit:4;stroke-dasharray:none;stroke-opacity:1" transform="matrix(1.02556 .1802 -.0216 .97128 -31.075 -102.467)"/></g><path d="M9.01 24.84c-.253.57-.434 1.003-.617 1.3-.282.457-1.34.214-1.014-.498.16-.385.376-.868.662-1.367.286-.498 1.223-.004.97.566" style="fill:#ffddc2;fill-opacity:1;fill-rule:evenodd;stroke:none;stroke-width:.365;stroke-linecap:butt;stroke-linejoin:miter;stroke-miterlimit:4;stroke-dasharray:none;stroke-opacity:1"/><path d="M16.602 63.625c.295.904 2.166 1.247 2.764 1.323s1.974-2.203 2.105-2.588c.132-.384-.826-3.693-1.15-3.98-.326-.287-4.16-2.485-6.894-1.392-2.736 1.093-4.556 3.392-4.962 5.72-.192 1.103-.273 3.062 1.487 2.863.672-.076.55-1.865 2.175-2.555 1.825-.775 2.796-.626 4.475.609" style="vector-effect:none;fill:#fd9c50;fill-opacity:1;fill-rule:evenodd;stroke:none;stroke-width:.2;stroke-linecap:butt;stroke-linejoin:miter;stroke-miterlimit:4;stroke-dasharray:none;stroke-dashoffset:0;stroke-opacity:1"/><path d="M.962 64.415c.676-.458 2.005 1.01 3.133 1.02 1.128.008 3.45-.514 4.287-2.403.838-1.888 2.352.228 2.612.75s-1.02 1.985-2.576 2.852c-1.555.867-3.353.842-4.63.31-1.198-.5-2.826-2.53-2.826-2.53" style="vector-effect:none;fill:#fd9c50;fill-opacity:1;fill-rule:evenodd;stroke:none;stroke-width:.2;stroke-linecap:butt;stroke-linejoin:miter;stroke-miterlimit:4;stroke-dasharray:none;stroke-dashoffset:0;stroke-opacity:1"/><path d="M12.852 58.817a2.05 2.05 0 0 1-.655.534c-.14.074-.32.112-.456.06-.07-.02-.128-.06-.15-.117-.079-.153-.033-.342.077-.505.128-.199.33-.375.56-.515a.6.6 0 0 1 .532-.029c.162.071.268.223.198.383a.6.6 0 0 1-.106.189z" style="fill:#ffddc2;fill-opacity:.60274;fill-rule:evenodd;stroke:none;stroke-width:.365;stroke-linecap:butt;stroke-linejoin:miter;stroke-miterlimit:4;stroke-dasharray:none;stroke-opacity:1"/><path d="M38.536 62.293c-.8-.166-1.47 1.696-2.51 2.134s-2.903.862-4.396-.566-3.373 1.484-3.415 2.066c-.043.582 2.501 1.044 4.269 1.254s3.421-.496 4.4-1.474c.918-.918 1.652-3.414 1.652-3.414" style="vector-effect:none;fill:#fd9c50;fill-opacity:1;fill-rule:evenodd;stroke:none;stroke-width:.2;stroke-linecap:butt;stroke-linejoin:miter;stroke-miterlimit:4;stroke-dasharray:none;stroke-dashoffset:0;stroke-opacity:1"/><path d="M22.745 63.687c-.385.87-2.281 1.022-2.884 1.037s-1.74-2.392-1.832-2.788 1.196-3.59 1.548-3.843 4.388-2.051 6.999-.687 4.189 3.835 4.357 6.192c.08 1.118-.038 3.074-1.77 2.698-.66-.143-.358-1.911-1.905-2.762-1.737-.955-2.718-.905-4.513.153" style="vector-effect:none;fill:#fd9c50;fill-opacity:1;fill-rule:evenodd;stroke:none;stroke-width:.2;stroke-linecap:butt;stroke-linejoin:miter;stroke-miterlimit:4;stroke-dasharray:none;stroke-dashoffset:0;stroke-opacity:1"/><path d="M20.114 63.906c.313-.277-2.265-.521-1.374-.561 2.148-.096 5.499-1.51 6.217-1.488.667.11 2.37.538 3.055 1.138.829.851.834 2.022.898 2.65.088.398.43.844.574.988-.146-.02-.925-.046-1.001-.551l-.094.012-.023.006a.4.4 0 0 1-.077.007l-.013.002-.002-.002c-.283-.014-.57-.34-.68-.77a1.2 1.2 0 0 1 .007-.666c.063-.18.178-.299.32-.329a.4.4 0 0 1 .086-.006h.004a2 2 0 0 0-.502-.616.4.4 0 0 1-.052.105l-.262.3q-.006.01-.013.021a.4.4 0 0 1-.06.063l-.009.01-.002-.001c-.242.196-.727.14-1.145-.133-.415-.271-.643-.678-.54-.962a.35.35 0 0 1 .116-.162l.04-.054a2.8 2.8 0 0 0-.706-.013l.053.174.012.023q.018.045.023.091l.003.012-.002.002c.035.33-.335.74-.874.966-.607.256-1.213.19-1.352-.146a.4.4 0 0 1-.024-.1l-.023-.058c-.476.836-2.008.852-2.592.875-.277.011-.427.203-.847-.082-.169-.114.517-.442.858-.744z" style="color:#000;clip-rule:nonzero;display:inline;overflow:visible;visibility:visible;isolation:auto;mix-blend-mode:normal;color-interpolation:sRGB;color-interpolation-filters:linearRGB;solid-color:#000;solid-opacity:1;vector-effect:none;fill:#cb6e3b;fill-opacity:1;fill-rule:nonzero;stroke:none;stroke-width:.2;stroke-linecap:butt;stroke-linejoin:miter;stroke-miterlimit:4;stroke-dasharray:none;stroke-dashoffset:0;stroke-opacity:1;marker:none;paint-order:markers stroke fill;color-rendering:auto;image-rendering:auto;shape-rendering:auto;text-rendering:auto"/><path d="M24.085 59.585c.262.023.551-.021.836-.12.149-.053.299-.16.353-.296.032-.065.042-.134.015-.189-.06-.161-.23-.256-.424-.286a1.74 1.74 0 0 0-.757.064.6.6 0 0 0-.382.372c-.057.168-.017.349.148.406a.6.6 0 0 0 .21.049z" style="fill:#ffddc2;fill-opacity:.60274;fill-rule:evenodd;stroke:none;stroke-width:.365;stroke-linecap:butt;stroke-linejoin:miter;stroke-miterlimit:4;stroke-dasharray:none;stroke-opacity:1"/><path d="M21.08 63.453c-.253-.416-1.685.01-2.395-.572-1.71-1.4-3.404-1.677-3.966-1.6s-1.911-.177-3.287 1.122c-.91.763-1.034 1.928-1.161 2.546-.128.386-.514.796-.671.924.146-.005.924.049 1.051-.447l.093.022.022.008q.037.011.076.014l.013.003.002-.001c.283.015.602-.28.754-.697a1.2 1.2 0 0 0 .06-.663c-.044-.186-.147-.315-.286-.36a.4.4 0 0 0-.084-.015h-.004c.148-.217.329-.412.562-.562a.4.4 0 0 0 .04.11l.23.324q.007.01.011.023a.4.4 0 0 0 .054.069l.008.01h.002c.221.22.709.213 1.152-.017.44-.228.708-.609.635-.903a.35.35 0 0 0-.1-.172l-.034-.059c.24-.01.472.01.704.06l-.07.167-.014.022a.4.4 0 0 0-.032.088l-.004.012v.002c-.067.325.26.77.772 1.05.58.315 1.188.31 1.36-.01a.4.4 0 0 0 .034-.096l.03-.056c.388.88 2.474.971 3.053 1.054.274.038-.171.364.23-.2 0 0 .193-.877.449-.962z" style="color:#000;clip-rule:nonzero;display:inline;overflow:visible;visibility:visible;isolation:auto;mix-blend-mode:normal;color-interpolation:sRGB;color-interpolation-filters:linearRGB;solid-color:#000;solid-opacity:1;vector-effect:none;fill:#cb6e3b;fill-opacity:1;fill-rule:nonzero;stroke:none;stroke-width:.2;stroke-linecap:butt;stroke-linejoin:miter;stroke-miterlimit:4;stroke-dasharray:none;stroke-dashoffset:0;stroke-opacity:1;marker:none;paint-order:markers stroke fill;color-rendering:auto;image-rendering:auto;shape-rendering:auto;text-rendering:auto"/><ellipse cx="27.033" cy="61.349" rx="1.308" ry=".799" style="color:#000;clip-rule:nonzero;display:inline;overflow:visible;visibility:visible;isolation:auto;mix-blend-mode:normal;color-interpolation:sRGB;color-interpolation-filters:linearRGB;solid-color:#000;solid-opacity:1;vector-effect:none;fill:#cb6e3b;fill-opacity:1;fill-rule:nonzero;stroke:none;stroke-width:.2;stroke-linecap:butt;stroke-linejoin:miter;stroke-miterlimit:4;stroke-dasharray:none;stroke-dashoffset:0;stroke-opacity:1;marker:none;paint-order:markers stroke fill;color-rendering:auto;image-rendering:auto;shape-rendering:auto;text-rendering:auto" transform="rotate(7.676)"/><ellipse cx="2.394" cy="67.891" rx="1.308" ry=".799" style="color:#000;clip-rule:nonzero;display:inline;overflow:visible;visibility:visible;isolation:auto;mix-blend-mode:normal;color-interpolation:sRGB;color-interpolation-filters:linearRGB;solid-color:#000;solid-opacity:1;vector-effect:none;fill:#cb6e3b;fill-opacity:1;fill-rule:nonzero;stroke:none;stroke-width:.2;stroke-linecap:butt;stroke-linejoin:miter;stroke-miterlimit:4;stroke-dasharray:none;stroke-dashoffset:0;stroke-opacity:1;marker:none;paint-order:markers stroke fill;color-rendering:auto;image-rendering:auto;shape-rendering:auto;text-rendering:auto" transform="rotate(-16.264)"/><path d="M20.711 48.936c.025-.831.785-.822.856-.125s.136 1.22.123 1.614c-.02.607-.825.737-.905-.142-.058-.464-.05-.882-.074-1.347z" style="fill:#4e3b3a;fill-opacity:1;fill-rule:evenodd;stroke:#2f2828;stroke-width:.365;stroke-linecap:butt;stroke-linejoin:miter;stroke-miterlimit:4;stroke-dasharray:none;stroke-opacity:1"/><path d="M28.118 48.428c.113-.81.882-.718.88-.03-.002.689.018 1.409-.09 1.77-.129.424-.814.409-.803-.457-.01-.46-.012-.827.013-1.283z" style="vector-effect:none;fill:#4e3b3a;fill-opacity:1;fill-rule:evenodd;stroke:#2f2828;stroke-width:.365;stroke-linecap:butt;stroke-linejoin:miter;stroke-miterlimit:4;stroke-dasharray:none;stroke-dashoffset:0;stroke-opacity:1"/><path d="M25.024 57.944c-.897.005-1.325-1.544-1.107-2.884.188-2.433 3.008-3.302 2.4.847-.63 2.36-1.293 2.037-1.293 2.037z" style="vector-effect:none;fill:#91332b;fill-opacity:1;fill-rule:evenodd;stroke:#5d0000;stroke-width:.365;stroke-linecap:round;stroke-linejoin:bevel;stroke-miterlimit:4;stroke-dasharray:none;stroke-dashoffset:0;stroke-opacity:1"/><ellipse cx="-66.893" cy="70.456" rx="24.757" ry="3.44" style="color:#000;clip-rule:nonzero;display:inline;overflow:visible;visibility:visible;opacity:.789;isolation:auto;mix-blend-mode:normal;color-interpolation:sRGB;color-interpolation-filters:linearRGB;solid-color:#000;solid-opacity:1;vector-effect:none;fill:url(#c);fill-opacity:1;fill-rule:nonzero;stroke:none;stroke-width:.264583px;stroke-linecap:butt;stroke-linejoin:miter;stroke-miterlimit:4;stroke-dasharray:none;stroke-dashoffset:0;stroke-opacity:1;marker:none;paint-order:markers stroke fill;color-rendering:auto;image-rendering:auto;shape-rendering:auto;text-rendering:auto" transform="scale(-1 1)"/><path d="M51.941 65.419c.722-.325 1.8 1.188 2.893 1.35 1.093.16 2.966.127 4.05-1.476 1.085-1.604 3.926.312 4.104.822s-2.501 1.75-4.134 2.327c-1.633.578-3.374.313-4.535-.343-1.091-.616-2.378-2.68-2.378-2.68" style="vector-effect:none;fill:#ffb370;fill-opacity:1;fill-rule:evenodd;stroke:none;stroke-width:.2;stroke-linecap:butt;stroke-linejoin:miter;stroke-miterlimit:4;stroke-dasharray:none;stroke-dashoffset:0;stroke-opacity:1"/><path d="M61.809 60.012c.835-.072 1.508-1.482 1.695-1.94.186-.456-1.49-1.943-1.794-2.115-.303-.172-2.769.168-3.08.372-.313.204-3.134 2.586-2.75 4.932.383 2.345 1.706 4.436 3.62 5.169.909.348 2.94.53 3.125-.89.071-.542-1.982-.717-2.245-2.117-.295-1.573.03-2.31 1.429-3.411" style="vector-effect:none;fill:#ffb370;fill-opacity:1;fill-rule:evenodd;stroke:none;stroke-width:.2;stroke-linecap:butt;stroke-linejoin:miter;stroke-miterlimit:4;stroke-dasharray:none;stroke-dashoffset:0;stroke-opacity:1"/><path d="M58.083 58.903a1.8 1.8 0 0 1-.546.569c-.122.085-.29.141-.43.11-.07-.01-.132-.04-.162-.088-.1-.13-.087-.31-.007-.472.092-.197.258-.383.457-.539a.6.6 0 0 1 .509-.091c.167.044.294.171.252.326a.5.5 0 0 1-.072.185z" style="fill:#fffdfb;fill-opacity:.461187;fill-rule:evenodd;stroke:none;stroke-width:.365;stroke-linecap:butt;stroke-linejoin:miter;stroke-miterlimit:4;stroke-dasharray:none;stroke-opacity:1"/><path d="M83.053 65.664c-.722-.324-1.8 1.19-2.892 1.35-1.093.16-2.967.128-4.051-1.476-1.085-1.603-3.926.313-4.104.822-.177.51 2.501 1.75 4.135 2.328s3.373.313 4.535-.343c1.09-.616 2.377-2.68 2.377-2.68" style="vector-effect:none;fill:#ffb370;fill-opacity:1;fill-rule:evenodd;stroke:none;stroke-width:.2;stroke-linecap:butt;stroke-linejoin:miter;stroke-miterlimit:4;stroke-dasharray:none;stroke-dashoffset:0;stroke-opacity:1"/><path d="M73.186 60.257c-.836-.07-1.509-1.482-1.695-1.938-.187-.457 1.49-1.945 1.793-2.116s2.77.167 3.081.372c.312.204 3.133 2.586 2.75 4.931-.384 2.346-1.707 4.437-3.621 5.17-.908.347-2.939.53-3.125-.89-.07-.542 1.983-.717 2.245-2.117.295-1.573-.03-2.31-1.428-3.412" style="vector-effect:none;fill:#ffb370;fill-opacity:1;fill-rule:evenodd;stroke:none;stroke-width:.2;stroke-linecap:butt;stroke-linejoin:miter;stroke-miterlimit:4;stroke-dasharray:none;stroke-dashoffset:0;stroke-opacity:1"/><path d="M76.911 59.149c.122.211.313.406.546.569.123.084.29.14.43.11.07-.011.132-.04.162-.089.101-.13.087-.309.007-.471a1.55 1.55 0 0 0-.457-.54.6.6 0 0 0-.508-.09c-.168.044-.294.17-.253.326.011.063.04.137.073.185z" style="fill:#fffdfb;fill-opacity:.461187;fill-rule:evenodd;stroke:none;stroke-width:.365;stroke-linecap:butt;stroke-linejoin:miter;stroke-miterlimit:4;stroke-dasharray:none;stroke-opacity:1"/><path d="M53.737 38.38c-2.32 11.267 3.095 18.713 11.26 20.32 7.242 1.426 16.24-5.915 17.02-14.658.614-6.884-3.528-12.012-11.743-13.297-8.002-1.252-15.511 2.65-16.537 7.634" style="color:#000;clip-rule:nonzero;display:inline;overflow:visible;visibility:visible;isolation:auto;mix-blend-mode:normal;color-interpolation:sRGB;color-interpolation-filters:linearRGB;solid-color:#000;solid-opacity:1;vector-effect:none;fill:#fd9c50;fill-opacity:1;fill-rule:nonzero;stroke:none;stroke-width:.2;stroke-linecap:butt;stroke-linejoin:miter;stroke-miterlimit:4;stroke-dasharray:none;stroke-dashoffset:0;stroke-opacity:1;marker:none;paint-order:markers stroke fill;color-rendering:auto;image-rendering:auto;shape-rendering:auto;text-rendering:auto"/><path d="M71.559 13.44c-.72-1.132-2.578-1.897-3.353-.67-.458.727-22.945 27.91-23.617 28.623-.923.98-1.018 2.481.223 3.048 1.246.295 44.381 1.284 45.495 1.41 1.114.127 3.734-1.634 2.259-3.082S72.43 15.34 71.559 13.44" style="fill:#fd9c50;fill-opacity:1;fill-rule:evenodd;stroke:none;stroke-width:.2;stroke-linecap:butt;stroke-linejoin:miter;stroke-miterlimit:4;stroke-dasharray:none;stroke-opacity:1"/><path d="M75.381 22.291c.386.55.668.969.92 1.25.387.437 1.371.118.879-.57-.25-.372-.579-.838-.98-1.314-.4-.477-1.205.085-.819.634" style="fill:#ffddc2;fill-opacity:1;fill-rule:evenodd;stroke:none;stroke-width:.365;stroke-linecap:butt;stroke-linejoin:miter;stroke-miterlimit:4;stroke-dasharray:none;stroke-opacity:1"/><path d="M69.152 61.284c-.949-.072-1.727-1.808-1.943-2.37s1.67-2.442 2.013-2.66c.342-.22 3.784-.076 4.14.171s3.402 3.448 2.991 6.365c-.411 2.916-2.211 5.231-4.375 6.179-1.027.45-2.91.994-3.135-.764-.086-.67 1.68-.977 1.964-2.72.319-1.956-.057-2.864-1.655-4.201" style="vector-effect:none;fill:#fd9c50;fill-opacity:1;fill-rule:evenodd;stroke:none;stroke-width:.2;stroke-linecap:butt;stroke-linejoin:miter;stroke-miterlimit:4;stroke-dasharray:none;stroke-dashoffset:0;stroke-opacity:1"/><path d="M79.54 67.446c-.737-.353-1.836 1.294-2.95 1.469s-3.026.139-4.132-1.606c-1.106-1.744-3.63.63-3.811 1.185-.182.554 2.177 1.614 3.842 2.243s3.44.34 4.625-.374c1.113-.67 2.425-2.917 2.425-2.917" style="vector-effect:none;fill:#fd9c50;fill-opacity:1;fill-rule:evenodd;stroke:none;stroke-width:.2;stroke-linecap:butt;stroke-linejoin:miter;stroke-miterlimit:4;stroke-dasharray:none;stroke-dashoffset:0;stroke-opacity:1"/><path d="M68.195 58.32c.465.148.45.213 1.184.764 1.767 1.328 2.438 2.907 2.498 3.472s.626 1.814-.31 3.459c-.524 1.066-1.626 1.463-2.195 1.733-.346.216-.651.689-.74.872-.03-.144-.266-.886.185-1.128l-.043-.085-.013-.019a.4.4 0 0 1-.032-.07l-.006-.012v-.002c-.081-.271.13-.651.498-.898a1.2 1.2 0 0 1 .63-.216c.192-.002.342.067.418.191q.021.037.034.079l.002.004c.175-.196.322-.418.412-.68a.4.4 0 0 1-.116-.013l-.37-.146-.025-.005a.4.4 0 0 1-.08-.036l-.011-.005v-.002c-.267-.163-.376-.638-.259-1.123.117-.482.424-.833.727-.831a.36.36 0 0 1 .19.055l.065.02a2.8 2.8 0 0 0-.224-.67l-.146.108-.019.019a.4.4 0 0 1-.078.052l-.01.007-.002-.001c-.3.143-.809-.068-1.203-.5-.444-.487-.584-1.08-.314-1.323a.4.4 0 0 1 .085-.055l.047-.042c-.946-.168-1.712-1.802-1.93-2.345-.103-.257-.132-.118.32-.641 0 0 .574-.068.831.014" style="color:#000;clip-rule:nonzero;display:inline;overflow:visible;visibility:visible;isolation:auto;mix-blend-mode:normal;color-interpolation:sRGB;color-interpolation-filters:linearRGB;solid-color:#000;solid-opacity:1;vector-effect:none;fill:#cb6e3b;fill-opacity:1;fill-rule:nonzero;stroke:none;stroke-width:.2;stroke-linecap:butt;stroke-linejoin:miter;stroke-miterlimit:4;stroke-dasharray:none;stroke-dashoffset:0;stroke-opacity:1;marker:none;paint-order:markers stroke fill;color-rendering:auto;image-rendering:auto;shape-rendering:auto;text-rendering:auto"/><path d="M73.309 59.089c.066.255.205.513.393.748.1.122.251.227.397.233.072.008.14-.005.183-.05.132-.109.164-.301.127-.494a1.74 1.74 0 0 0-.314-.692.6.6 0 0 0-.478-.235c-.177.002-.334.1-.333.275a.6.6 0 0 0 .025.215z" style="fill:#ffddc2;fill-opacity:.60274;fill-rule:evenodd;stroke:none;stroke-width:.365;stroke-linecap:butt;stroke-linejoin:miter;stroke-miterlimit:4;stroke-dasharray:none;stroke-opacity:1"/><path d="M65.29 61.12c.949-.071 1.727-1.807 1.943-2.37s-1.67-2.44-2.013-2.66c-.342-.219-3.784-.075-4.14.172s-3.402 3.448-2.991 6.364 2.21 5.232 4.375 6.18c1.027.45 2.91.993 3.135-.764.086-.67-1.68-.978-1.964-2.72-.319-1.957.057-2.864 1.655-4.202" style="vector-effect:none;fill:#fd9c50;fill-opacity:1;fill-rule:evenodd;stroke:none;stroke-width:.2;stroke-linecap:butt;stroke-linejoin:miter;stroke-miterlimit:4;stroke-dasharray:none;stroke-dashoffset:0;stroke-opacity:1"/><path d="M54.92 67.231c.737-.353 1.835 1.294 2.95 1.469 1.115.174 3.025.139 4.131-1.606s3.63.63 3.812 1.184c.18.555-2.178 1.615-3.843 2.244-1.666.628-3.44.34-4.625-.374-1.112-.67-2.425-2.917-2.425-2.917" style="vector-effect:none;fill:#fd9c50;fill-opacity:1;fill-rule:evenodd;stroke:none;stroke-width:.2;stroke-linecap:butt;stroke-linejoin:miter;stroke-miterlimit:4;stroke-dasharray:none;stroke-dashoffset:0;stroke-opacity:1"/><path d="M66.378 58.714c-.366.203-.297.162-1.03.67-1.96 1.36-2.304 2.523-2.523 3.208-.12.665-.286 2.413.05 3.26.524 1.066 1.626 1.463 2.195 1.733.346.216.651.689.739.872.03-.144.267-.887-.184-1.128l.043-.085.013-.02a.4.4 0 0 0 .032-.07l.006-.012-.001-.002c.082-.27-.128-.65-.497-.898a1.2 1.2 0 0 0-.63-.216v.001c-.192-.002-.342.067-.418.191a.4.4 0 0 0-.034.078l-.002.004a2 2 0 0 1-.412-.679.4.4 0 0 0 .116-.014l.37-.146.025-.005a.4.4 0 0 0 .08-.035l.011-.005v-.002c.267-.163.376-.638.259-1.123-.117-.482-.424-.833-.727-.831a.36.36 0 0 0-.19.055l-.065.02q.07-.352.224-.67l.146.108.019.019q.035.03.078.052l.01.007.002-.001c.3.143.809-.068 1.203-.5.444-.487.584-1.08.314-1.323a.4.4 0 0 0-.085-.056l-.047-.042c.946-.168 1.712-1.801 1.93-2.344.103-.257.727.058.274-.466-.133-.153-.895.175-1.294.395" style="color:#000;clip-rule:nonzero;display:inline;overflow:visible;visibility:visible;isolation:auto;mix-blend-mode:normal;color-interpolation:sRGB;color-interpolation-filters:linearRGB;solid-color:#000;solid-opacity:1;vector-effect:none;fill:#cb6e3b;fill-opacity:1;fill-rule:nonzero;stroke:none;stroke-width:.2;stroke-linecap:butt;stroke-linejoin:miter;stroke-miterlimit:4;stroke-dasharray:none;stroke-dashoffset:0;stroke-opacity:1;marker:none;paint-order:markers stroke fill;color-rendering:auto;image-rendering:auto;shape-rendering:auto;text-rendering:auto"/><path d="M61.133 58.925a2 2 0 0 1-.393.748c-.1.123-.251.228-.397.234-.072.008-.14-.005-.183-.05-.132-.11-.164-.301-.127-.495.04-.233.157-.473.314-.692a.6.6 0 0 1 .478-.235c.177.002.334.101.333.275a.6.6 0 0 1-.025.216z" style="fill:#ffddc2;fill-opacity:.60274;fill-rule:evenodd;stroke:none;stroke-width:.365;stroke-linecap:butt;stroke-linejoin:miter;stroke-miterlimit:4;stroke-dasharray:none;stroke-opacity:1"/><path d="M127.442 153.533c.025-.836.786-.958.856-.273s.136 1.197.123 1.592c-.02.61-.825.88-.905.015-.058-.454-.05-.873-.074-1.334z" style="fill:#4e3b3a;fill-opacity:1;fill-rule:evenodd;stroke:#2f2828;stroke-width:.365;stroke-linecap:butt;stroke-linejoin:miter;stroke-miterlimit:4;stroke-dasharray:none;stroke-opacity:1" transform="matrix(-.99662 .14458 .08095 .99164 181.382 -123.403)"/><path d="M134.85 151.745c.112-.829.881-.87.879-.182-.002.689.019 1.405-.09 1.786-.128.446-.814.549-.802-.319-.01-.458-.012-.825.012-1.285z" style="opacity:1;vector-effect:none;fill:#4e3b3a;fill-opacity:1;fill-rule:evenodd;stroke:#2f2828;stroke-width:.365;stroke-linecap:butt;stroke-linejoin:miter;stroke-miterlimit:4;stroke-dasharray:none;stroke-dashoffset:0;stroke-opacity:1" transform="matrix(-.99662 .14458 .08095 .99164 181.382 -123.403)"/><path d="M50.943 151.141c-.4-.253.512-1.424.812-1.681s-.192 1.924-.812 1.681M51.835 151.467c-.414-.358.552-2.05.867-2.423.316-.372-.224 2.763-.867 2.422M52.816 151.194c-.414-.358.552-2.05.867-2.422.316-.373-.223 2.763-.867 2.422" style="fill:#d35034;fill-opacity:.442922;fill-rule:evenodd;stroke:none;stroke-width:.264583px;stroke-linecap:butt;stroke-linejoin:miter;stroke-opacity:1" transform="matrix(-1.01153 .1946 -.05219 .99864 127.88 -109.04)"/><path d="M59.278 149.607c-.414-.358.551-2.05.867-2.422s-.224 2.763-.867 2.422" style="opacity:1;vector-effect:none;fill:#d35034;fill-opacity:.442922;fill-rule:evenodd;stroke:none;stroke-width:.264583px;stroke-linecap:butt;stroke-linejoin:miter;stroke-miterlimit:4;stroke-dasharray:none;stroke-dashoffset:0;stroke-opacity:1" transform="matrix(-1.01153 .1946 -.05219 .99864 127.416 -109.007)"/><path d="M60.167 149.362c-.414-.358.551-2.05.867-2.423.316-.372-.224 2.763-.867 2.423M61.158 148.825c-.349-.27.457-1.542.721-1.821.265-.28-.18 2.08-.721 1.82" style="opacity:1;vector-effect:none;fill:#d35034;fill-opacity:.442922;fill-rule:evenodd;stroke:none;stroke-width:.264583px;stroke-linecap:butt;stroke-linejoin:miter;stroke-miterlimit:4;stroke-dasharray:none;stroke-dashoffset:0;stroke-opacity:1" transform="matrix(-1.01153 .1946 -.05219 .99864 127.416 -109.007)"/><path d="M60.92 52.65c.725 1.521 3.319 1.624 4.012.175" style="fill:none;fill-rule:evenodd;stroke:#762c2c;stroke-width:.665;stroke-linecap:round;stroke-linejoin:miter;stroke-miterlimit:4;stroke-dasharray:none;stroke-opacity:1"/><g style="opacity:.7"><path d="M40.727 129.676c1.767-2.45 18.796-6.065 19.84-5.302s.485 14.546-.84 14.988-19.643-6.714-19-9.686" style="fill:#fff;fill-opacity:1;fill-rule:evenodd;stroke:none;stroke-width:.265;stroke-linecap:butt;stroke-linejoin:miter;stroke-miterlimit:4;stroke-dasharray:none;stroke-opacity:1" transform="scale(-1 1)rotate(14.729 374.06 -378.105)"/><path d="M60.726 124.265c.405 5.023.436 9.414-1.014 15.087 8.711-2.58 13.404-4.123 13.88-4.381.94-.511-.31-1.551-1.257-2.164-.326-.21-5.87-4.302-11.609-8.542" style="fill:#f1680d;fill-opacity:1;fill-rule:evenodd;stroke:none;stroke-width:.264583px;stroke-linecap:butt;stroke-linejoin:miter;stroke-opacity:1" transform="scale(-1 1)rotate(14.729 374.06 -378.105)"/><path d="M46.539 114.109c-.345.023-.66.266-.852.88-.158.915-2.553 7.975-4.943 14.768 4.419-1.58 11.654-4.001 20.168-5.354-6.462-4.774-13.249-9.795-13.563-10.015-.258-.18-.543-.297-.81-.28" style="fill:#211f20;fill-opacity:1;fill-rule:evenodd;stroke:none;stroke-width:.264583px;stroke-linecap:butt;stroke-linejoin:miter;stroke-opacity:1" transform="scale(-1 1)rotate(14.729 374.06 -378.105)"/><path d="M40.767 129.67c-2.218 6.308-4.442 12.415-4.868 13.146-.883 1.515 1.44 3.153 2.31 2.81.428-.169 12.909-3.711 21.39-6.222-6.697-3.927-14.61-7.64-18.832-9.734" style="fill:#737373;fill-opacity:1;fill-rule:evenodd;stroke:none;stroke-width:.2;stroke-linecap:butt;stroke-linejoin:miter;stroke-miterlimit:4;stroke-dasharray:none;stroke-opacity:1" transform="scale(-1 1)rotate(14.729 374.06 -378.105)"/></g></g></svg>