<svg xmlns="http://www.w3.org/2000/svg" width="32" height="32" viewBox="0 0 8.467 8.467"><defs><filter id="b" style="color-interpolation-filters:sRGB"><feFlood flood-color="#000" flood-opacity="1" result="flood"/><feComposite in="flood" in2="SourceGraphic" operator="in" result="composite1"/><feGaussianBlur in="composite1" result="blur" stdDeviation=".2"/><feOffset result="offset"/><feComposite in="SourceGraphic" in2="offset" result="composite2"/></filter><filter id="a" style="color-interpolation-filters:sRGB"><feFlood flood-color="#000" flood-opacity="1" result="flood"/><feComposite in="flood" in2="SourceGraphic" operator="in" result="composite1"/><feGaussianBlur in="composite1" result="blur" stdDeviation=".2"/><feOffset result="offset"/><feComposite in="SourceGraphic" in2="offset" result="composite2"/></filter></defs><g transform="translate(-.208 .264)"><rect width="5.25" height="3.587" x=".556" y="4.113" ry=".538" style="fill:#7d7d7d;stroke:#3a3a3a;stroke-width:.264583;stroke-opacity:1"/><path d="m2.366 6.77.001-.864v-.863l.748.432.747.432-.748.432Z" style="fill:#fff;fill-opacity:1;stroke:#3a3a3a;stroke-width:.264583;stroke-opacity:1"/><path d="M3.126 29.574a1.48 1.48 0 0 1-.85-.441 1.4 1.4 0 0 1-.4-.676l-.051-.176v-4.95c0-5.573-.016-5.067.171-5.447a1.2 1.2 0 0 1 .27-.364c.28-.28.546-.409.93-.453.116-.013.806-.022 1.66-.022h1.461l.131.27a3.06 3.06 0 0 0 2.337 1.695c.117.016 1.99.023 6.013.023h5.843l-.006 4.668-.005 4.668-.069.19a1.57 1.57 0 0 1-1.058.987c-.126.036-.57.039-8.198.041-4.436.002-8.117-.004-8.179-.013M8.83 26.79l4.755-2.742c.684-.394 1.235-.723 1.227-.731a24 24 0 0 0-.568-.334L8.375 19.59c-.36-.208-.67-.385-.69-.393-.035-.013-.037.265-.037 4.123 0 3.93.002 4.136.038 4.122a70 70 0 0 0 1.144-.652" style="fill:#999895;stroke-width:.0156447;fill-opacity:1" transform="matrix(.26458 0 0 .26458 .208 -.264)"/></g><g transform="translate(-.208 .264)"><rect width="6.307" height="4.345" x="1.992" y=".266" ry=".652" style="fill:#fff;fill-opacity:1;stroke:#3a3a3a;stroke-width:.319191;stroke-opacity:1"/></g><path d="M.838.848h2.643v1.861H.838zM4.896 4.38h2.451v.875H4.896z" style="fill:#9a9996;stroke-width:.187325" transform="matrix(.53539 0 0 .53644 2.681 .692)"/><path fill="none" d="M7.228 2.304H4.82v2.413h2.408Z"/><path d="M20 2H4c-1.1 0-1.99.9-1.99 2L2 22l4-4h14c1.1 0 2-.9 2-2V4c0-1.1-.9-2-2-2M9 11H7V9h2zm4 0h-2V9h2zm4 0h-2V9h2z" style="fill:#deddda;filter:url(#a)" transform="matrix(-.10034 0 0 .10054 7.228 2.304)"/><path fill="none" d="M2.681.692H5.09v2.413H2.68Z"/><path d="M20 2H4c-1.1 0-1.99.9-1.99 2L2 22l4-4h14c1.1 0 2-.9 2-2V4c0-1.1-.9-2-2-2M6 9h12v2H6Zm8 5H6v-2h8zm4-6H6V6h12z" style="fill:#deddda;filter:url(#b)" transform="matrix(.10034 0 0 .10054 2.681 .692)"/></svg>