<svg xmlns="http://www.w3.org/2000/svg" width="32" height="32" viewBox="0 0 8.467 8.467"><defs><filter id="b" style="color-interpolation-filters:sRGB"><feFlood flood-color="#000" flood-opacity="1" result="flood"/><feComposite in="flood" in2="SourceGraphic" operator="in" result="composite1"/><feGaussianBlur in="composite1" result="blur" stdDeviation=".2"/><feOffset result="offset"/><feComposite in="SourceGraphic" in2="offset" result="composite2"/></filter><filter id="a" style="color-interpolation-filters:sRGB"><feFlood flood-color="#000" flood-opacity="1" result="flood"/><feComposite in="flood" in2="SourceGraphic" operator="in" result="composite1"/><feGaussianBlur in="composite1" result="blur" stdDeviation=".2"/><feOffset result="offset"/><feComposite in="SourceGraphic" in2="offset" result="composite2"/></filter></defs><path d="M.838.848h2.643v1.861H.838zM4.896 4.38h2.451v.875H4.896z" style="fill:#9a9996;stroke-width:.187325"/><path fill="none" d="M8.493 3.004H3.995v4.498h4.498Z"/><path d="M20 2H4c-1.1 0-1.99.9-1.99 2L2 22l4-4h14c1.1 0 2-.9 2-2V4c0-1.1-.9-2-2-2M9 11H7V9h2zm4 0h-2V9h2zm4 0h-2V9h2z" style="fill:#deddda;filter:url(#a)" transform="matrix(-.18741 0 0 .18741 8.493 3.004)"/><path fill="none" d="M0 0h4.498v4.498H0Z"/><path d="M20 2H4c-1.1 0-1.99.9-1.99 2L2 22l4-4h14c1.1 0 2-.9 2-2V4c0-1.1-.9-2-2-2M6 9h12v2H6Zm8 5H6v-2h8zm4-6H6V6h12z" style="fill:#deddda;filter:url(#b)" transform="scale(.18741)"/></svg>